<?xml version="1.0" encoding="UTF-8"?>
<svg width="24px" height="24px" viewBox="0 0 24 24" version="1.1" xmlns="http://www.w3.org/2000/svg" xmlns:xlink="http://www.w3.org/1999/xlink">
    <!-- Generator: Sketch 60 (88103) - https://sketch.com -->
    <title>icon / menu / line / turbo</title>
    <desc>Created with Sketch.</desc>
    <g id="icon-/-menu-/-line-/-turbo" stroke="none" stroke-width="1" fill="none" fill-rule="evenodd">
        <path d="M11.4900068,19.4344606 C12.9854908,19.4344606 13.4900068,20.3486741 13.4900068,20.3486741 C13.4900068,21.471709 13.0170541,22.5947438 12.0711488,23.7177786 L11.8612291,23.958441 C11.6762169,24.1634547 11.3600384,24.1796691 11.1550247,23.9946568 C11.1423423,23.9832117 11.1302547,23.9711241 11.1188096,23.9584417 C10.0329411,22.7551858 9.49000683,21.55193 9.49000683,20.3486741 C9.49000683,20.3486741 9.99452283,19.4344606 11.4900068,19.4344606 Z M11.1343174,0.815974692 C11.4469543,0.632359874 11.834489,0.632359004 12.1471267,0.815972419 L12.1471267,0.815972419 L12.4517089,0.999316109 C15.2444127,2.72365011 16.6407646,4.80624409 16.6407646,7.24709805 C16.6407646,8.35118014 16.5836241,9.62668371 16.4693431,11.0736088 L19.3478714,13.9542048 C19.5354078,14.1417412 19.6407646,14.3960951 19.6407646,14.6613116 L19.6407646,14.6613116 L19.6407646,17.5085816 C19.6407646,17.5721913 19.628627,17.6352168 19.605003,17.6942769 C19.5024463,17.9506687 19.211461,18.0753766 18.9550693,17.9728199 L18.9550693,17.9728199 L15.8504853,16.7297481 C15.8217447,16.9452905 15.7922201,17.1631846 15.7619115,17.3834305 C15.6937992,17.8783888 15.2708346,18.2471344 14.7712116,18.247098 L14.7712116,18.247098 L8.51027748,18.247098 C8.01066044,18.247098 7.58770082,17.8783567 7.51961363,17.3834009 C7.48930524,17.1631557 7.45978077,16.9452623 7.43104022,16.7297206 L4.32645995,17.9728199 C4.07006819,18.0753766 3.77908297,17.9506687 3.67652627,17.6942769 C3.65290221,17.6352168 3.64076461,17.5721913 3.64076461,17.5085816 L3.64076461,14.6613116 C3.64076461,14.3960951 3.74612145,14.1417412 3.93365783,13.9542048 L6.81218531,11.0735987 C6.69790485,9.6266778 6.64076461,8.35117758 6.64076461,7.24709805 C6.64076461,4.71908882 8.13861555,2.57538103 11.1343174,0.815974692 Z M11.3528653,2.94387087 C9.54479818,4.21161326 8.64076461,5.47935566 8.64076461,6.74709805 C8.64076461,8.0399203 8.87580375,11.0563628 9.34588201,15.7964257 C9.37123278,16.0522135 9.58640025,16.247098 9.84344126,16.247098 L13.4448173,16.247098 C13.6990707,16.2470781 13.912836,16.0562636 13.9415898,15.8036414 C14.4077063,11.7084828 14.6407646,8.8563017 14.6407646,7.24709805 C14.6407646,5.73807649 13.820992,4.36568369 12.1814469,3.12991966 L11.9293863,2.94555233 C11.7569105,2.82311257 11.5260523,2.82243926 11.3528653,2.94387087 Z M11.5993433,6.24709749 C12.7591413,6.24709749 13.6993433,7.18729951 13.6993433,8.34709749 C13.6993433,9.50689546 12.7591413,10.4470975 11.5993433,10.4470975 C10.4395453,10.4470975 9.49934329,9.50689546 9.49934329,8.34709749 C9.49934329,7.18729951 10.4395453,6.24709749 11.5993433,6.24709749 Z" id="Path-13" fill="#064E3B" transform="translate(11.640765, 12.400866) rotate(45.000000) translate(-11.640765, -12.400866) "></path>
    </g>
</svg>